# xmcd CD database file
#
# Track frame offsets:
#	150
#	23119
#	41253
#	63094
#	82618
#	101106
#	120998
#	139990
#	162204
#	179746
#	197361
#
# Disc length: 2863 seconds
#
# Revision: 1
# Processed by: cddbd v1.4PL0 Copyright (c) Steve Scherf et al.
# Submitted via: CDex 1.40Beta9
#
DISCID=820b2d0b
DTITLE=張學友 - 走過1999
DYEAR=1900
DGENRE=
TTITLE0=心如刀割
TTITLE1=壞 x 5 （壞壞壞壞壞）
TTITLE2=她來聽我的演唱?
TTITLE3=二分之一的幸福
TTITLE4=留給自己一個晚上
TTITLE5=認床
TTITLE6=好呆
TTITLE7=走過1999
TTITLE8=你好毒
TTITLE9=放棄你
TTITLE10=女人香
EXTD=
EXTT0=
EXTT1=
EXTT2=
EXTT3=
EXTT4=
EXTT5=
EXTT6=
EXTT7=
EXTT8=
EXTT9=
EXTT10=
PLAYORDER=
